<?xml version="1.0" standalone="no"?>
<!DOCTYPE svg PUBLIC "-//W3C//DTD SVG 20010904//EN"
 "http://www.w3.org/TR/2001/REC-SVG-20010904/DTD/svg10.dtd">
<svg version="1.0" xmlns="http://www.w3.org/2000/svg"
 width="260.000000pt" height="260.000000pt" viewBox="0 0 260.000000 260.000000"
 preserveAspectRatio="xMidYMid meet">
<metadata>
Created by potrace 1.11, written by Peter Selinger 2001-2013
</metadata>
<g transform="translate(0.000000,260.000000) scale(0.100000,-0.100000)"
fill="#000000" stroke="none">
<path d="M106 2584 c-22 -8 -48 -22 -59 -31 -48 -45 -47 -6 -47 -1260 0 -1300
-5 -1204 67 -1259 l38 -29 1180 -3 1180 -3 47 22 c89 41 83 -54 83 1295 l0
1180 -25 36 c-50 74 53 68 -1252 67 -995 0 -1179 -3 -1212 -15z m1061 -207
l28 -27 0 -456 0 -456 -28 -24 -28 -24 -427 0 c-379 0 -430 2 -451 16 -49 35
-51 54 -51 486 0 382 5 467 28 490 23 23 96 26 489 25 l413 -2 27 -28z m1170
-10 l28 -27 0 -1051 0 -1051 -28 -24 -28 -24 -427 0 c-379 0 -430 2 -451 16
-52 37 -51 7 -51 1081 0 554 4 1015 9 1037 11 47 20 56 63 66 18 5 219 8 445
7 l413 -2 27 -28z m-1186 -1177 c48 -26 49 -40 49 -502 0 -407 -1 -435 -19
-464 -14 -23 -29 -33 -57 -37 -22 -4 -217 -7 -434 -7 -294 0 -401 3 -419 13
-13 6 -32 28 -43 47 -18 33 -18 60 -16 465 3 456 4 466 51 485 32 13 864 13
888 0z"/>
<path d="M401 2226 c-8 -9 -11 -105 -9 -337 l3 -324 315 0 315 0 0 335 0 335
-306 3 c-251 2 -308 0 -318 -12z"/>
<path d="M1571 2217 c-8 -11 -10 -257 -9 -933 l3 -919 315 0 315 0 0 930 0
930 -306 3 c-250 2 -308 0 -318 -11z"/>
<path d="M395 1018 c-3 -7 -4 -159 -3 -338 l3 -325 315 0 315 0 0 335 0 335
-313 3 c-246 2 -314 0 -317 -10z"/>
</g>
</svg>
